<svg width="26" height="30" viewBox="0 0 26 30" fill="none" xmlns="http://www.w3.org/2000/svg">
<g filter="url(#filter0_d_7_1153)">
<path d="M19 8H21C21.5523 8 22 8.44772 22 9V21C22 21.5523 21.5523 22 21 22H5C4.44772 22 4 21.5523 4 21V9C4 8.44772 4.44772 8 5 8H7V7C7 3.68629 9.68629 1 13 1C16.3137 1 19 3.68629 19 7V8ZM17 8V7C17 4.79086 15.2091 3 13 3C10.7909 3 9 4.79086 9 7V8H17ZM12 14V16H14V14H12ZM8 14V16H10V14H8ZM16 14V16H18V14H16Z" fill="black"/>
</g>
<defs>
<filter id="filter0_d_7_1153" x="-3" y="0" width="32" height="32" filterUnits="userSpaceOnUse" color-interpolation-filters="sRGB">
<feFlood flood-opacity="0" result="BackgroundImageFix"/>
<feColorMatrix in="SourceAlpha" type="matrix" values="0 0 0 0 0 0 0 0 0 0 0 0 0 0 0 0 0 0 127 0" result="hardAlpha"/>
<feOffset dy="4"/>
<feGaussianBlur stdDeviation="2"/>
<feComposite in2="hardAlpha" operator="out"/>
<feColorMatrix type="matrix" values="0 0 0 0 0 0 0 0 0 0 0 0 0 0 0 0 0 0 0.25 0"/>
<feBlend mode="normal" in2="BackgroundImageFix" result="effect1_dropShadow_7_1153"/>
<feBlend mode="normal" in="SourceGraphic" in2="effect1_dropShadow_7_1153" result="shape"/>
</filter>
</defs>
</svg>
